<?xml version="1.0" encoding="utf-8"?>
<!-- Generator: Adobe Illustrator 19.0.0, SVG Export Plug-In . SVG Version: 6.00 Build 0)  -->
<svg version="1.1" id="图层_1" xmlns="http://www.w3.org/2000/svg" xmlns:xlink="http://www.w3.org/1999/xlink" x="0px" y="0px"
	 viewBox="0 0 69 58" style="enable-background:new 0 0 69 58;" xml:space="preserve">
<style type="text/css">
	.st0{opacity:0.86;fill:#4D95D8;enable-background:new    ;}
	.st1{opacity:0.53;fill:#6DA5DA;enable-background:new    ;}
	.st2{fill:#FFFFFF;}
</style>
<path id="XMLID_6_" class="st0" d="M16.7,8.2c11-13.7,42.1-7,46,14c3.1,16.3-15.2,43.6-29,32c-12.5-10.5-28.6-1.8-32-18
	C-1.2,22.2,5.1,22.7,16.7,8.2z"/>
<path id="XMLID_2_" class="st1" d="M55.5,31.7L55.5,31.7c6.9,0,12.5,5.6,12.5,12.5l0,0c0,6.9-5.6,12.5-12.5,12.5l0,0
	c-6.9,0-12.5-5.6-12.5-12.5l0,0C43,37.3,48.6,31.7,55.5,31.7z"/>
<path class="st2" d="M23.6,18l-1.1,1.2h11.2c0,1.3,0,2.5-0.1,3.6h1.9V25h-2.1c0,0.5-0.1,1.2-0.3,1.9h1.3v1.8h-1.7l-0.2,0.6l0.9,0.7
	c-1.7,0.8-3.5,1.6-5.3,2.2l6.5-0.2c1.1-0.6,2.6-1.4,4.2-2.3l2.5,1.6c-3.9,2.2-8,3.8-12.2,5c3.8-0.1,7.8-0.4,12.1-0.7
	c-0.9-0.7-1.7-1.2-2.2-1.5l2.4-1.5c2.6,1.6,5.2,3.3,7.5,5.3l-2.8,1.9c-0.6-0.6-1.4-1.3-2.4-2.1L35.9,38v3.7c0,1.9-1.1,2.8-3.4,2.8
	h-3l-0.6-2.8c0.9,0.1,1.8,0.2,2.7,0.2c0.3,0,0.5,0,0.7-0.2c0.2-0.2,0.3-0.4,0.3-0.7v-2.8c-3.4,0.2-7,0.3-11.1,0.4l-0.7-2.8
	c0.9,0.1,1.9,0.1,2.8,0.1c2.4-0.5,4.8-1.3,7-2.2L23.5,34l-0.5-2.5c0.9,0,1.8-0.1,2.6-0.3c1.4-0.5,2.8-1.2,4.2-1.8l0.2-0.7h-9.6
	c0.3-1.6,0.5-2.9,0.6-3.7h-2.1v-2.2h2.3c0.1-1.1,0.2-1.9,0.3-2.5l-1.1,0.9l-1.8-2.1c2-1.5,3.6-3.4,4.8-5.6l2.9,0.6l-0.8,1.5h9.8V18
	H23.6z M29.6,40.8c-2.9,1.5-6,2.7-9.2,3.5l-1.3-2.7c3-0.6,5.9-1.6,8.7-2.9L29.6,40.8z M23.7,24.7l-0.4,2.2h4.8
	c-1.1-0.5-2.2-0.9-3.4-1.2l0.7-1.1H23.7z M26,20.9h-1.8L24,23.2h4.2c-0.9-0.5-1.9-0.8-2.9-1.1L26,20.9z M28.5,26.9h2l0.4-2.2H26
	c1.1,0.3,2.1,0.7,3.2,1.1L28.5,26.9z M30.9,23.2l0.1-2.2h-4.6c1.1,0.3,2.1,0.7,3.1,1.2l-0.7,1H30.9z M37.5,21.4
	c-0.3,0.4-0.8,1-1.5,1.7l-1.9-2.2c2-2.1,3.5-4.7,4.5-7.4l3,0.7l-1.1,2.3h8.7v2.8h-1.9c-0.5,2.1-1.5,4.1-2.8,5.8
	c1.7,1,3.5,1.8,5.4,2.4l-1.6,2.8c-2.1-0.7-4.1-1.8-6-3c-1.8,1.4-3.9,2.3-6.1,2.9l-1.6-2.5c2-0.4,3.8-1.2,5.5-2.3
	C39,24.1,38.1,22.8,37.5,21.4L37.5,21.4z M39.8,38.6c3.1,0.7,6.2,1.7,9.2,2.9l-1.8,2.8c-3-1.3-6.1-2.4-9.3-3.1L39.8,38.6z
	 M39.3,19.1c0.6,1.6,1.5,3,2.8,4.2c1-1.2,1.8-2.7,2.3-4.2H39.3z M39.3,19.1"/>
</svg>
